Coordinates
version=1
nRows=30
nColumns=30
inDegrees=yes

Units are S.I. units (second, meters, Newtons, ...)
Angles are in degrees.

endheader
time	floatyaw	floatroll	floatpitch	floatx	floaty	floatz	pro_sup_l	deviation_l	flexion_l	cmc_flexion_l	cmc_abduction_l	mp_flexion_l	ip_flexion_l	2mcp_flexion_l	2mcp_abduction_l	2pm_flexion_l	2md_flexion_l	3mcp_flexion_l	3mcp_abduction_l	3pm_flexion_l	3md_flexion_l	4mcp_flexion_l	4mcp_abduction_l	4pm_flexion_l	4md_flexion_l	5mcp_flexion_l	5mcp_abduction_l	5pm_flexion_l	5md_flexion_l
0.005000	-3.995636	-4.876138	96.430707	0.055308	-0.158723	0.048495	45.497375	8.611324	-7.715143	-0.745707	33.616202	-34.221552	-54.485041	59.884124	6.575503	67.392028	45.066960	52.929770	5.376149	69.559365	49.420056	43.405758	-6.386024	83.433640	62.782270	34.832545	-4.684363	91.637562	50.572583
0.015000	-3.995636	-4.876138	96.430707	0.055733	-0.157198	0.048696	44.678128	9.340780	-8.582187	-0.768618	33.742184	-34.434368	-54.878646	60.143068	6.547365	67.419389	45.131233	53.312496	5.353761	69.614453	49.458548	43.876134	-6.376137	83.471981	62.942183	35.283848	-4.707950	91.934838	50.619599
0.025000	-3.995636	-4.876138	96.430707	0.056173	-0.154955	0.048966	44.231192	10.018925	-9.415837	-0.753864	33.906409	-34.711311	-55.401145	60.440455	6.506458	67.403308	45.176056	53.697279	5.317277	69.580400	49.453925	44.322263	-6.374182	83.443308	63.102607	35.679200	-4.728405	92.154314	50.645943
0.035000	-3.995636	-4.876138	96.430707	0.056609	-0.152262	0.049231	44.182090	10.621716	-10.137997	-0.704376	34.108721	-35.006127	-55.992893	60.765747	6.454901	67.298205	45.183399	54.069137	5.272889	69.437900	49.386354	44.733750	-6.379877	83.317077	63.252813	36.041360	-4.747522	92.220365	50.665132
0.045000	-3.995636	-4.876138	96.430707	0.057015	-0.149584	0.049415	44.420860	11.147181	-10.691412	-0.643718	34.335389	-35.265317	-56.563195	61.096874	6.398614	67.082840	45.138404	54.399887	5.230442	69.209109	49.242701	45.093695	-6.390030	83.104217	63.369141	36.394601	-4.764301	92.093196	50.691187
0.055000	-3.995636	-4.876138	96.430707	0.057360	-0.147443	0.049465	44.729742	11.612500	-11.057623	-0.606306	34.562401	-35.442699	-57.012262	61.399217	6.343725	66.773102	45.042460	54.657871	5.200596	68.951248	49.027833	45.385390	-6.399881	82.847780	63.422852	36.755064	-4.776673	91.782977	50.730559
0.065000	-3.995636	-4.876138	96.430707	0.057613	-0.146225	0.049369	44.876173	12.041807	-11.259360	-0.618551	34.757705	-35.515645	-57.264905	61.632121	6.294731	66.420833	44.917099	54.820236	5.190673	68.731972	48.764944	45.598374	-6.405424	82.599958	63.391280	37.119663	-4.784031	91.346066	50.776619
0.075000	-3.995636	-4.876138	96.430707	0.057755	-0.146024	0.049158	44.723859	12.450999	-11.345719	-0.682468	34.886894	-35.494311	-57.301192	61.763154	6.254813	66.095193	44.795123	54.882313	5.201389	68.597818	48.484926	45.730126	-6.405206	82.399193	63.267381	37.461553	-4.788436	90.862819	50.809913
0.085000	-3.995636	-4.876138	96.430707	0.057786	-0.146617	0.048886	44.295092	12.838829	-11.369468	-0.772773	34.924972	-35.416065	-57.165239	61.782525	6.226658	65.854058	44.704339	54.859134	5.226620	68.553292	48.212676	45.783510	-6.400475	82.258655	63.062921	37.737618	-4.793530	90.407281	50.805695
0.095000	-3.995636	-4.876138	96.430707	0.057730	-0.147588	0.048611	43.745818	13.189576	-11.369777	-0.849777	34.869150	-35.326754	-56.944368	61.708141	6.212170	65.720988	44.655069	54.778685	5.256532	68.562686	47.960030	45.764095	-6.393814	82.168159	62.803946	37.905926	-4.802154	90.023800	50.746247
0.105000	-3.995636	-4.876138	96.430707	0.057626	-0.148512	0.048375	43.272813	13.484442	-11.367178	-0.879580	34.742294	-35.260030	-56.729436	61.577575	6.211364	65.680660	44.639460	54.671567	5.282184	68.572501	47.728853	45.680892	-6.387505	82.104565	62.521460	37.944778	-4.814647	89.720351	50.631597
0.115000	-3.995636	-4.876138	96.430707	0.057515	-0.149119	0.048196	43.013787	13.713427	-11.367954	-0.848730	34.581571	-35.226547	-56.578367	61.431657	6.221977	65.693558	44.641187	54.562930	5.298984	68.539956	47.519470	45.549498	-6.382694	82.044334	62.242251	37.863955	-4.829086	89.478004	50.481979
0.125000	-3.995636	-4.876138	96.430707	0.057422	-0.149351	0.048069	42.996649	13.880681	-11.370913	-0.765517	34.418557	-35.216594	-56.501101	61.298802	6.240597	65.719025	44.647353	54.469678	5.307448	68.451110	47.336758	45.393570	-6.379555	81.973262	61.983962	37.703032	-4.842998	89.268407	50.329770
0.135000	-3.995636	-4.876138	96.430707	0.057351	-0.149316	0.047971	43.154340	14.001860	-11.372041	-0.649629	34.264056	-35.210981	-56.469901	61.187340	6.264507	65.732939	44.655162	54.402025	5.311515	68.320779	47.190033	45.241951	-6.377856	81.889997	61.755795	37.517982	-4.855156	89.069963	50.204794
0.145000	-3.995636	-4.876138	96.430707	0.057291	-0.149183	0.047876	43.380811	14.097029	-11.366766	-0.518894	34.106862	-35.192211	-56.444448	61.087675	6.292683	65.732725	44.671573	54.366349	5.315891	68.178426	47.088265	45.122294	-6.377316	81.802516	61.562831	37.362407	-4.866238	88.876709	50.120839
0.155000	-3.995636	-4.876138	96.430707	0.057221	-0.149092	0.047761	43.588341	14.183770	-11.351236	-0.381681	33.925125	-35.151022	-56.395143	60.981178	6.325138	65.731070	44.708490	54.366617	5.323899	68.051058	47.034562	45.054220	-6.377603	81.720477	61.409710	37.271521	-4.878166	88.698066	50.070664
0.165000	-3.995636	-4.876138	96.430707	0.057129	-0.149107	0.047613	43.738075	14.273337	-11.323220	-0.237739	33.701154	-35.087711	-56.312875	60.850722	6.361338	65.744708	44.776817	54.403703	5.336612	67.952658	47.022931	45.044935	-6.378234	81.648691	61.300275	37.255019	-4.892701	88.551079	50.032044
0.175000	-3.995636	-4.876138	96.430707	0.057013	-0.149216	0.047434	43.838589	14.370140	-11.282415	-0.084245	33.430350	-35.009816	-56.204334	60.688360	6.399169	65.784561	44.881505	54.473901	5.353144	67.883019	47.038505	45.088657	-6.378624	81.585701	61.233460	37.300569	-4.910158	88.449430	49.981133
0.185000	-3.995636	-4.876138	96.430707	0.056880	-0.149365	0.047233	43.924492	14.473340	-11.230136	0.078212	33.120905	-34.927837	-56.080380	60.497727	6.435331	65.850808	45.018900	54.568528	5.371566	67.833038	47.061096	45.169574	-6.378333	81.527432	61.199130	37.384468	-4.928968	88.395018	49.905213
0.195000	-3.995636	-4.876138	96.430707	0.056744	-0.149496	0.047022	44.031747	14.579153	-11.168779	0.243183	32.787360	-34.850519	-55.946365	60.291155	6.466760	65.933459	45.177224	54.675311	5.389909	67.791615	47.070969	45.266854	-6.377304	81.472407	61.177871	37.482962	-4.946331	88.376534	49.807836
0.205000	-3.995636	-4.876138	96.430707	0.056614	-0.149574	0.046812	44.181372	14.682984	-11.101402	0.400032	32.443947	-34.781469	-55.799148	60.083730	6.491893	66.017078	45.339973	54.780719	5.406907	67.750731	47.054805	45.359798	-6.375938	81.424330	61.145987	37.578834	-4.959678	88.374930	49.704375
0.215000	-3.995636	-4.876138	96.430707	0.056496	-0.149588	0.046606	44.375133	14.781002	-11.031459	0.538096	32.101613	-34.718537	-55.630641	59.887547	6.510975	66.087294	45.490768	54.872114	5.422281	67.707485	47.009519	45.431871	-6.374876	81.390007	61.083549	37.662147	-4.968057	88.371309	49.611557
0.225000	-3.995636	-4.876138	96.430707	0.056390	-0.149550	0.046407	44.600460	14.870982	-10.962374	0.650890	31.768636	-34.656121	-55.434717	59.708706	6.525451	66.136444	45.617706	54.939470	5.436546	67.663389	46.942315	45.473229	-6.374651	81.374165	60.981511	37.727819	-4.972567	88.352399	49.537361
0.235000	-3.995636	-4.876138	96.430707	0.056292	-0.149480	0.046215	44.838971	14.952286	-10.896814	0.738213	31.452289	-34.589047	-55.213242	59.547671	6.537008	66.166018	45.715759	54.976935	5.450502	67.622015	46.866978	45.481642	-6.375414	81.375323	60.844240	37.773331	-4.975586	88.312078	49.477197
0.245000	-3.995636	-4.876138	96.430707	0.056200	-0.149397	0.046030	45.073586	15.025136	-10.835937	0.805234	31.159425	-34.515864	-54.977987	59.401867	6.546830	66.184935	45.786676	54.983955	5.464702	67.586319	46.798159	45.461637	-6.376907	81.385965	60.686328	37.797985	-4.979329	88.250346	49.418308
0.255000	-3.995636	-4.876138	96.430707	0.056113	-0.149313	0.045856	45.292015	15.089746	-10.779208	0.859217	30.895467	-34.439683	-54.747720	59.268546	6.555306	66.204589	45.837118	54.965206	5.479195	67.556817	46.746545	45.422064	-6.378645	81.396388	60.525970	37.803199	-4.984721	88.171515	49.348891
0.265000	-3.995636	-4.876138	96.430707	0.056031	-0.149234	0.045696	45.487350	15.145981	-10.725147	0.905803	30.662486	-34.366156	-54.542169	59.146357	6.562219	66.233257	45.876435	54.929057	5.493606	67.531115	46.717252	45.373039	-6.380141	81.398821	60.378986	37.792689	-4.991193	88.082334	49.265114
0.275000	-3.995636	-4.876138	96.430707	0.055955	-0.149161	0.045554	45.657482	15.193737	-10.672557	0.946822	30.457521	-34.300054	-54.375201	59.035126	6.567207	66.272816	45.914828	54.885110	5.507412	67.504900	46.711202	45.323300	-6.381066	81.389317	60.255946	37.771831	-4.997312	87.990275	49.171342
0.285000	-3.995636	-4.876138	96.430707	0.055887	-0.149095	0.045433	45.804180	15.233595	-10.621353	0.980532	30.272488	-34.242808	-54.249415	58.934479	6.570185	66.319409	45.961408	54.841574	5.520168	67.474274	46.726999	45.278420	-6.381320	81.367763	60.161600	37.746165	-5.001648	87.902425	49.074866
0.295000	-3.995636	-4.876138	96.430707	0.055827	-0.149035	0.045330	45.931658	15.267091	-10.572442	1.003711	30.096412	-34.192585	-54.154402	58.842456	6.571489	66.367460	46.021866	54.802943	5.531547	67.438722	46.761346	45.239931	-6.381071	81.337504	60.094794	37.719591	-5.003395	87.825163	48.980573
